<svg xmlns="http://www.w3.org/2000/svg" width="3300" height="689" viewBox="0 0 3300 689">
  <defs>
    <style>
      .cls-1 {
        fill: #0a0a0a;
      }

      .cls-1, .cls-2 {
        fill-rule: evenodd;
      }

      .cls-2 {
        fill: #e8921a;
      }
    </style>
  </defs>
  <path class="cls-1" d="M984.927,20.728L1329.57,88.087,1602.8,288.973,825.219,206.219Z"/>
  <path id="Rectangle_7_copy" data-name="Rectangle 7 copy" class="cls-1" d="M2770.56-.167L2426.89,66.67,2174.48,258.205l760.67-71.725Z"/>
  <path class="cls-1" d="M542.38,741.487L692.656,197.526,1717.96,716.2,756.332,834.541Z"/>
  <path class="cls-1" d="M119.688,499.146l575.44-298.3,28.863,558.3-604.3,102v-362Z"/>
  <path class="cls-1" d="M3008.57,200.85l263.4,439.92,14.88,103.705L2262.26,709.834Z"/>
  <path class="cls-1" d="M825.216,206.221l744.644,60.318,269.61,198.677,264.75,387.625Z"/>
  <path class="cls-1" d="M1632.46,288.8l272.62-135.377L2129.51,273.9,1883.16,442.192Z"/>
  <path id="Rectangle_3_copy" data-name="Rectangle 3 copy" class="cls-1" d="M2938.68,186.139l-741.57,56.779-232.44,232.4-120.8,421.783Z"/>
  <path class="cls-2" d="M1887.26,234.37l66.98-28.151,70.98,46.669-93.91,41.622Z"/>
</svg>
